<svg width="51" height="50" viewBox="0 0 51 50" fill="none" xmlns="http://www.w3.org/2000/svg">
<g id="favorite">
<circle id="Ellipse 1" cx="25.0735" cy="25" r="25" fill="white"/>
<path id="favorite_2" d="M25.5 46.3613L22.745 43.8818C19.5467 40.9889 16.9025 38.4935 14.8125 36.3954C12.7225 34.2973 11.06 32.4138 9.825 30.7448C8.59 29.0759 7.72708 27.5421 7.23625 26.1433C6.74542 24.7446 6.5 23.3141 6.5 21.8518C6.5 18.8636 7.4975 16.3681 9.4925 14.3654C11.4875 12.3627 13.9733 11.3613 16.95 11.3613C18.5967 11.3613 20.1642 11.711 21.6525 12.4104C23.1408 13.1097 24.4233 14.0952 25.5 15.3668C26.5767 14.0952 27.8592 13.1097 29.3475 12.4104C30.8358 11.711 32.4033 11.3613 34.05 11.3613C37.0267 11.3613 39.5125 12.3627 41.5075 14.3654C43.5025 16.3681 44.5 18.8636 44.5 21.8518C44.5 23.3141 44.2546 24.7446 43.7638 26.1433C43.2729 27.5421 42.41 29.0759 41.175 30.7448C39.94 32.4138 38.2775 34.2973 36.1875 36.3954C34.0975 38.4935 31.4533 40.9889 28.255 43.8818L25.5 46.3613ZM25.5 41.2115C28.54 38.4776 31.0417 36.1331 33.005 34.1781C34.9683 32.223 36.52 30.5223 37.66 29.0759C38.8 27.6295 39.5917 26.342 40.035 25.2135C40.4783 24.085 40.7 22.9644 40.7 21.8518C40.7 19.9444 40.0667 18.355 38.8 17.0834C37.5333 15.8118 35.95 15.176 34.05 15.176C32.5617 15.176 31.1842 15.5973 29.9175 16.4397C28.6508 17.2821 27.78 18.355 27.305 19.6583H23.695C23.22 18.355 22.3492 17.2821 21.0825 16.4397C19.8158 15.5973 18.4383 15.176 16.95 15.176C15.05 15.176 13.4667 15.8118 12.2 17.0834C10.9333 18.355 10.3 19.9444 10.3 21.8518C10.3 22.9644 10.5217 24.085 10.965 25.2135C11.4083 26.342 12.2 27.6295 13.34 29.0759C14.48 30.5223 16.0317 32.223 17.995 34.1781C19.9583 36.1331 22.46 38.4776 25.5 41.2115Z" fill="#DB4D4D"/>
</g>
</svg>
